<?xml version="1.0" standalone="no"?><!DOCTYPE svg PUBLIC "-//W3C//DTD SVG 1.1//EN" "http://www.w3.org/Graphics/SVG/1.1/DTD/svg11.dtd"><svg t="1735703330359" class="icon" viewBox="0 0 1170 1024" version="1.1" xmlns="http://www.w3.org/2000/svg" p-id="5895" width="27.421875" height="24" xmlns:xlink="http://www.w3.org/1999/xlink"><path d="M1170.285714 1024H0V329.142857h73.142857v621.714286h1024V329.142857h73.142857v694.857143z" p-id="5896" fill="#d7dae0"></path><path d="M1170.285714 512H0V256a109.714286 109.714286 0 0 1 109.714286-109.714286h950.857143a109.714286 109.714286 0 0 1 109.714285 109.714286zM73.142857 438.857143h1024V256a36.571429 36.571429 0 0 0-36.571428-36.571429H109.714286a36.571429 36.571429 0 0 0-36.571429 36.571429z" p-id="5897" fill="#d7dae0"></path><path d="M292.571429 365.714286h73.142857v219.428571H292.571429zM804.571429 365.714286h73.142857v219.428571h-73.142857zM438.857143 182.857143h-73.142857V0h438.857143v182.857143h-73.142858V73.142857h-292.571428v109.714286z" p-id="5898" fill="#d7dae0"></path></svg>